<svg xmlns="http://www.w3.org/2000/svg" width="701" height="104" viewBox="0 0 701 104">
  <rect x="4" y="4" width="9" height="16" fill="rgb(0,200,255)"/>
  <rect x="13" y="4" width="9" height="16" fill="rgb(3,198,255)"/>
  <rect x="22" y="6" width="9" height="3" fill="rgb(6,195,255)"/>
  <rect x="22" y="15" width="6" height="3" fill="rgb(6,195,255)"/>
  <rect x="22" y="4" width="3" height="16" fill="rgb(6,195,255)"/>
  <rect x="28" y="6" width="3" height="14" fill="rgb(6,195,255)"/>
  <rect x="76" y="4" width="9" height="16" fill="rgb(25,181,255)"/>
  <rect x="85" y="4" width="9" height="16" fill="rgb(28,179,255)"/>
  <rect x="94" y="4" width="9" height="16" fill="rgb(32,176,255)"/>
  <rect x="103" y="4" width="9" height="16" fill="rgb(35,174,255)"/>
  <rect x="112" y="4" width="9" height="16" fill="rgb(38,172,255)"/>
  <rect x="121" y="4" width="9" height="16" fill="rgb(41,169,255)"/>
  <rect x="130" y="6" width="9" height="3" fill="rgb(44,167,255)"/>
  <rect x="130" y="15" width="6" height="3" fill="rgb(44,167,255)"/>
  <rect x="130" y="4" width="3" height="16" fill="rgb(44,167,255)"/>
  <rect x="136" y="6" width="3" height="14" fill="rgb(44,167,255)"/>
  <rect x="157" y="4" width="9" height="16" fill="rgb(54,160,255)"/>
  <rect x="166" y="4" width="9" height="16" fill="rgb(57,157,255)"/>
  <rect x="175" y="6" width="9" height="3" fill="rgb(60,155,255)"/>
  <rect x="175" y="15" width="6" height="3" fill="rgb(60,155,255)"/>
  <rect x="175" y="4" width="3" height="16" fill="rgb(60,155,255)"/>
  <rect x="181" y="6" width="3" height="14" fill="rgb(60,155,255)"/>
  <rect x="184" y="4" width="9" height="16" fill="rgb(63,153,255)"/>
  <rect x="193" y="4" width="9" height="16" fill="rgb(66,150,255)"/>
  <rect x="202" y="6" width="9" height="3" fill="rgb(69,148,255)"/>
  <rect x="202" y="15" width="6" height="3" fill="rgb(69,148,255)"/>
  <rect x="202" y="4" width="3" height="16" fill="rgb(69,148,255)"/>
  <rect x="208" y="6" width="3" height="14" fill="rgb(69,148,255)"/>
  <rect x="310" y="4" width="9" height="16" fill="rgb(107,126,255)"/>
  <rect x="319" y="4" width="9" height="16" fill="rgb(111,125,255)"/>
  <rect x="328" y="4" width="9" height="16" fill="rgb(114,123,255)"/>
  <rect x="337" y="4" width="9" height="16" fill="rgb(117,122,255)"/>
  <rect x="346" y="4" width="9" height="16" fill="rgb(120,120,255)"/>
  <rect x="355" y="4" width="9" height="16" fill="rgb(123,118,255)"/>
  <rect x="364" y="4" width="9" height="16" fill="rgb(126,117,255)"/>
  <rect x="373" y="6" width="9" height="3" fill="rgb(129,115,255)"/>
  <rect x="373" y="15" width="6" height="3" fill="rgb(129,115,255)"/>
  <rect x="373" y="4" width="3" height="16" fill="rgb(129,115,255)"/>
  <rect x="379" y="6" width="3" height="14" fill="rgb(129,115,255)"/>
  <rect x="382" y="4" width="9" height="16" fill="rgb(133,114,255)"/>
  <rect x="391" y="4" width="9" height="16" fill="rgb(136,112,255)"/>
  <rect x="400" y="6" width="9" height="3" fill="rgb(139,111,255)"/>
  <rect x="400" y="15" width="6" height="3" fill="rgb(139,111,255)"/>
  <rect x="400" y="4" width="3" height="16" fill="rgb(139,111,255)"/>
  <rect x="406" y="6" width="3" height="14" fill="rgb(139,111,255)"/>
  <rect x="427" y="4" width="9" height="16" fill="rgb(148,106,255)"/>
  <rect x="436" y="4" width="9" height="16" fill="rgb(152,104,255)"/>
  <rect x="445" y="6" width="9" height="3" fill="rgb(155,103,255)"/>
  <rect x="445" y="15" width="6" height="3" fill="rgb(155,103,255)"/>
  <rect x="445" y="4" width="3" height="16" fill="rgb(155,103,255)"/>
  <rect x="451" y="6" width="3" height="14" fill="rgb(155,103,255)"/>
  <rect x="454" y="4" width="9" height="16" fill="rgb(158,101,255)"/>
  <rect x="463" y="4" width="9" height="16" fill="rgb(161,99,255)"/>
  <rect x="472" y="6" width="9" height="3" fill="rgb(164,98,253)"/>
  <rect x="472" y="15" width="6" height="3" fill="rgb(164,98,253)"/>
  <rect x="472" y="4" width="3" height="16" fill="rgb(164,98,253)"/>
  <rect x="478" y="6" width="3" height="14" fill="rgb(164,98,253)"/>
  <rect x="481" y="4" width="9" height="16" fill="rgb(167,96,252)"/>
  <rect x="490" y="4" width="9" height="16" fill="rgb(171,95,251)"/>
  <rect x="499" y="6" width="9" height="3" fill="rgb(174,93,250)"/>
  <rect x="499" y="15" width="6" height="3" fill="rgb(174,93,250)"/>
  <rect x="499" y="4" width="3" height="16" fill="rgb(174,93,250)"/>
  <rect x="505" y="6" width="3" height="14" fill="rgb(174,93,250)"/>
  <rect x="553" y="4" width="9" height="16" fill="rgb(193,84,243)"/>
  <rect x="562" y="4" width="9" height="16" fill="rgb(196,82,242)"/>
  <rect x="571" y="6" width="9" height="3" fill="rgb(199,81,240)"/>
  <rect x="571" y="15" width="6" height="3" fill="rgb(199,81,240)"/>
  <rect x="571" y="4" width="3" height="16" fill="rgb(199,81,240)"/>
  <rect x="577" y="6" width="3" height="14" fill="rgb(199,81,240)"/>
  <rect x="625" y="4" width="9" height="16" fill="rgb(218,76,222)"/>
  <rect x="634" y="4" width="9" height="16" fill="rgb(221,75,219)"/>
  <rect x="643" y="4" width="9" height="16" fill="rgb(224,74,216)"/>
  <rect x="652" y="4" width="9" height="16" fill="rgb(227,73,213)"/>
  <rect x="661" y="4" width="9" height="16" fill="rgb(231,72,209)"/>
  <rect x="670" y="4" width="9" height="16" fill="rgb(234,72,206)"/>
  <rect x="679" y="4" width="9" height="16" fill="rgb(237,71,203)"/>
  <rect x="688" y="6" width="9" height="3" fill="rgb(240,70,200)"/>
  <rect x="688" y="15" width="6" height="3" fill="rgb(240,70,200)"/>
  <rect x="688" y="4" width="3" height="16" fill="rgb(240,70,200)"/>
  <rect x="694" y="6" width="3" height="14" fill="rgb(240,70,200)"/>
  <rect x="4" y="20" width="9" height="16" fill="rgb(0,200,255)"/>
  <rect x="13" y="20" width="9" height="16" fill="rgb(3,198,255)"/>
  <rect x="22" y="20" width="3" height="16" fill="rgb(6,195,255)"/>
  <rect x="28" y="20" width="3" height="16" fill="rgb(6,195,255)"/>
  <rect x="76" y="20" width="9" height="16" fill="rgb(25,181,255)"/>
  <rect x="85" y="20" width="9" height="16" fill="rgb(28,179,255)"/>
  <rect x="94" y="22" width="9" height="3" fill="rgb(32,176,255)"/>
  <rect x="97" y="31" width="6" height="3" fill="rgb(32,176,255)"/>
  <rect x="94" y="22" width="3" height="14" fill="rgb(32,176,255)"/>
  <rect x="100" y="20" width="3" height="16" fill="rgb(32,176,255)"/>
  <rect x="103" y="22" width="9" height="3" fill="rgb(35,174,255)"/>
  <rect x="103" y="31" width="9" height="3" fill="rgb(35,174,255)"/>
  <rect x="112" y="22" width="9" height="3" fill="rgb(38,172,255)"/>
  <rect x="112" y="31" width="9" height="3" fill="rgb(38,172,255)"/>
  <rect x="121" y="20" width="9" height="16" fill="rgb(41,169,255)"/>
  <rect x="130" y="20" width="9" height="16" fill="rgb(44,167,255)"/>
  <rect x="139" y="22" width="9" height="3" fill="rgb(47,164,255)"/>
  <rect x="139" y="31" width="6" height="3" fill="rgb(47,164,255)"/>
  <rect x="139" y="20" width="3" height="16" fill="rgb(47,164,255)"/>
  <rect x="145" y="22" width="3" height="14" fill="rgb(47,164,255)"/>
  <rect x="157" y="20" width="9" height="16" fill="rgb(54,160,255)"/>
  <rect x="166" y="20" width="9" height="16" fill="rgb(57,157,255)"/>
  <rect x="175" y="20" width="3" height="16" fill="rgb(60,155,255)"/>
  <rect x="181" y="20" width="3" height="16" fill="rgb(60,155,255)"/>
  <rect x="184" y="20" width="9" height="16" fill="rgb(63,153,255)"/>
  <rect x="193" y="20" width="9" height="16" fill="rgb(66,150,255)"/>
  <rect x="202" y="20" width="3" height="16" fill="rgb(69,148,255)"/>
  <rect x="208" y="20" width="3" height="16" fill="rgb(69,148,255)"/>
  <rect x="310" y="20" width="9" height="16" fill="rgb(107,126,255)"/>
  <rect x="319" y="20" width="9" height="16" fill="rgb(111,125,255)"/>
  <rect x="328" y="22" width="9" height="3" fill="rgb(114,123,255)"/>
  <rect x="331" y="31" width="6" height="3" fill="rgb(114,123,255)"/>
  <rect x="328" y="22" width="3" height="14" fill="rgb(114,123,255)"/>
  <rect x="334" y="20" width="3" height="16" fill="rgb(114,123,255)"/>
  <rect x="337" y="22" width="9" height="3" fill="rgb(117,122,255)"/>
  <rect x="337" y="31" width="9" height="3" fill="rgb(117,122,255)"/>
  <rect x="346" y="22" width="9" height="3" fill="rgb(120,120,255)"/>
  <rect x="346" y="31" width="9" height="3" fill="rgb(120,120,255)"/>
  <rect x="355" y="22" width="9" height="3" fill="rgb(123,118,255)"/>
  <rect x="355" y="31" width="9" height="3" fill="rgb(123,118,255)"/>
  <rect x="364" y="22" width="9" height="3" fill="rgb(126,117,255)"/>
  <rect x="364" y="31" width="9" height="3" fill="rgb(126,117,255)"/>
  <rect x="373" y="22" width="6" height="3" fill="rgb(129,115,255)"/>
  <rect x="373" y="31" width="9" height="3" fill="rgb(129,115,255)"/>
  <rect x="373" y="20" width="3" height="14" fill="rgb(129,115,255)"/>
  <rect x="379" y="20" width="3" height="14" fill="rgb(129,115,255)"/>
  <rect x="382" y="20" width="9" height="16" fill="rgb(133,114,255)"/>
  <rect x="391" y="20" width="9" height="16" fill="rgb(136,112,255)"/>
  <rect x="400" y="20" width="3" height="16" fill="rgb(139,111,255)"/>
  <rect x="406" y="20" width="3" height="16" fill="rgb(139,111,255)"/>
  <rect x="418" y="20" width="9" height="16" fill="rgb(145,107,255)"/>
  <rect x="427" y="20" width="9" height="16" fill="rgb(148,106,255)"/>
  <rect x="436" y="22" width="9" height="3" fill="rgb(152,104,255)"/>
  <rect x="439" y="31" width="6" height="3" fill="rgb(152,104,255)"/>
  <rect x="436" y="22" width="3" height="14" fill="rgb(152,104,255)"/>
  <rect x="442" y="20" width="3" height="16" fill="rgb(152,104,255)"/>
  <rect x="445" y="22" width="6" height="3" fill="rgb(155,103,255)"/>
  <rect x="445" y="31" width="9" height="3" fill="rgb(155,103,255)"/>
  <rect x="445" y="20" width="3" height="14" fill="rgb(155,103,255)"/>
  <rect x="451" y="20" width="3" height="14" fill="rgb(155,103,255)"/>
  <rect x="454" y="20" width="9" height="16" fill="rgb(158,101,255)"/>
  <rect x="463" y="20" width="9" height="16" fill="rgb(161,99,255)"/>
  <rect x="472" y="20" width="3" height="16" fill="rgb(164,98,253)"/>
  <rect x="478" y="20" width="3" height="16" fill="rgb(164,98,253)"/>
  <rect x="481" y="20" width="9" height="16" fill="rgb(167,96,252)"/>
  <rect x="490" y="20" width="9" height="16" fill="rgb(171,95,251)"/>
  <rect x="499" y="20" width="3" height="16" fill="rgb(174,93,250)"/>
  <rect x="505" y="20" width="3" height="16" fill="rgb(174,93,250)"/>
  <rect x="553" y="20" width="9" height="16" fill="rgb(193,84,243)"/>
  <rect x="562" y="20" width="9" height="16" fill="rgb(196,82,242)"/>
  <rect x="571" y="20" width="3" height="16" fill="rgb(199,81,240)"/>
  <rect x="577" y="20" width="3" height="16" fill="rgb(199,81,240)"/>
  <rect x="625" y="20" width="9" height="16" fill="rgb(218,76,222)"/>
  <rect x="634" y="20" width="9" height="16" fill="rgb(221,75,219)"/>
  <rect x="643" y="22" width="9" height="3" fill="rgb(224,74,216)"/>
  <rect x="646" y="31" width="6" height="3" fill="rgb(224,74,216)"/>
  <rect x="643" y="22" width="3" height="14" fill="rgb(224,74,216)"/>
  <rect x="649" y="20" width="3" height="16" fill="rgb(224,74,216)"/>
  <rect x="652" y="22" width="9" height="3" fill="rgb(227,73,213)"/>
  <rect x="652" y="31" width="9" height="3" fill="rgb(227,73,213)"/>
  <rect x="661" y="22" width="9" height="3" fill="rgb(231,72,209)"/>
  <rect x="661" y="31" width="9" height="3" fill="rgb(231,72,209)"/>
  <rect x="670" y="22" width="9" height="3" fill="rgb(234,72,206)"/>
  <rect x="670" y="31" width="9" height="3" fill="rgb(234,72,206)"/>
  <rect x="679" y="22" width="9" height="3" fill="rgb(237,71,203)"/>
  <rect x="679" y="31" width="9" height="3" fill="rgb(237,71,203)"/>
  <rect x="688" y="22" width="6" height="3" fill="rgb(240,70,200)"/>
  <rect x="688" y="31" width="9" height="3" fill="rgb(240,70,200)"/>
  <rect x="688" y="20" width="3" height="14" fill="rgb(240,70,200)"/>
  <rect x="694" y="20" width="3" height="14" fill="rgb(240,70,200)"/>
  <rect x="4" y="36" width="9" height="16" fill="rgb(0,200,255)"/>
  <rect x="13" y="36" width="9" height="16" fill="rgb(3,198,255)"/>
  <rect x="22" y="36" width="3" height="16" fill="rgb(6,195,255)"/>
  <rect x="28" y="36" width="3" height="16" fill="rgb(6,195,255)"/>
  <rect x="76" y="36" width="9" height="16" fill="rgb(25,181,255)"/>
  <rect x="85" y="36" width="9" height="16" fill="rgb(28,179,255)"/>
  <rect x="94" y="36" width="9" height="16" fill="rgb(32,176,255)"/>
  <rect x="103" y="36" width="9" height="16" fill="rgb(35,174,255)"/>
  <rect x="112" y="36" width="9" height="16" fill="rgb(38,172,255)"/>
  <rect x="121" y="36" width="9" height="16" fill="rgb(41,169,255)"/>
  <rect x="130" y="38" width="9" height="3" fill="rgb(44,167,255)"/>
  <rect x="133" y="47" width="6" height="3" fill="rgb(44,167,255)"/>
  <rect x="130" y="38" width="3" height="14" fill="rgb(44,167,255)"/>
  <rect x="136" y="36" width="3" height="16" fill="rgb(44,167,255)"/>
  <rect x="139" y="38" width="6" height="3" fill="rgb(47,164,255)"/>
  <rect x="139" y="47" width="9" height="3" fill="rgb(47,164,255)"/>
  <rect x="139" y="36" width="3" height="14" fill="rgb(47,164,255)"/>
  <rect x="145" y="36" width="3" height="14" fill="rgb(47,164,255)"/>
  <rect x="157" y="36" width="9" height="16" fill="rgb(54,160,255)"/>
  <rect x="166" y="36" width="9" height="16" fill="rgb(57,157,255)"/>
  <rect x="175" y="36" width="3" height="16" fill="rgb(60,155,255)"/>
  <rect x="181" y="36" width="3" height="16" fill="rgb(60,155,255)"/>
  <rect x="184" y="36" width="9" height="16" fill="rgb(63,153,255)"/>
  <rect x="193" y="36" width="9" height="16" fill="rgb(66,150,255)"/>
  <rect x="202" y="36" width="3" height="16" fill="rgb(69,148,255)"/>
  <rect x="208" y="36" width="3" height="16" fill="rgb(69,148,255)"/>
  <rect x="256" y="36" width="9" height="16" fill="rgb(88,136,255)"/>
  <rect x="265" y="36" width="9" height="16" fill="rgb(92,134,255)"/>
  <rect x="274" y="36" width="9" height="16" fill="rgb(95,133,255)"/>
  <rect x="283" y="36" width="9" height="16" fill="rgb(98,131,255)"/>
  <rect x="292" y="36" width="9" height="16" fill="rgb(101,129,255)"/>
  <rect x="301" y="38" width="9" height="3" fill="rgb(104,128,255)"/>
  <rect x="301" y="47" width="6" height="3" fill="rgb(104,128,255)"/>
  <rect x="301" y="36" width="3" height="16" fill="rgb(104,128,255)"/>
  <rect x="307" y="38" width="3" height="14" fill="rgb(104,128,255)"/>
  <rect x="310" y="36" width="9" height="16" fill="rgb(107,126,255)"/>
  <rect x="319" y="36" width="9" height="16" fill="rgb(111,125,255)"/>
  <rect x="328" y="36" width="9" height="16" fill="rgb(114,123,255)"/>
  <rect x="337" y="36" width="9" height="16" fill="rgb(117,122,255)"/>
  <rect x="346" y="36" width="9" height="16" fill="rgb(120,120,255)"/>
  <rect x="355" y="36" width="9" height="16" fill="rgb(123,118,255)"/>
  <rect x="364" y="36" width="9" height="16" fill="rgb(126,117,255)"/>
  <rect x="373" y="38" width="9" height="3" fill="rgb(129,115,255)"/>
  <rect x="373" y="47" width="6" height="3" fill="rgb(129,115,255)"/>
  <rect x="373" y="36" width="3" height="16" fill="rgb(129,115,255)"/>
  <rect x="379" y="38" width="3" height="14" fill="rgb(129,115,255)"/>
  <rect x="382" y="36" width="9" height="16" fill="rgb(133,114,255)"/>
  <rect x="391" y="36" width="9" height="16" fill="rgb(136,112,255)"/>
  <rect x="400" y="36" width="9" height="16" fill="rgb(139,111,255)"/>
  <rect x="409" y="36" width="9" height="16" fill="rgb(142,109,255)"/>
  <rect x="418" y="36" width="9" height="16" fill="rgb(145,107,255)"/>
  <rect x="427" y="38" width="9" height="3" fill="rgb(148,106,255)"/>
  <rect x="430" y="47" width="6" height="3" fill="rgb(148,106,255)"/>
  <rect x="427" y="38" width="3" height="14" fill="rgb(148,106,255)"/>
  <rect x="433" y="36" width="3" height="16" fill="rgb(148,106,255)"/>
  <rect x="436" y="38" width="6" height="3" fill="rgb(152,104,255)"/>
  <rect x="436" y="47" width="9" height="3" fill="rgb(152,104,255)"/>
  <rect x="436" y="36" width="3" height="14" fill="rgb(152,104,255)"/>
  <rect x="442" y="36" width="3" height="14" fill="rgb(152,104,255)"/>
  <rect x="454" y="36" width="9" height="16" fill="rgb(158,101,255)"/>
  <rect x="463" y="36" width="9" height="16" fill="rgb(161,99,255)"/>
  <rect x="472" y="36" width="3" height="16" fill="rgb(164,98,253)"/>
  <rect x="478" y="36" width="3" height="16" fill="rgb(164,98,253)"/>
  <rect x="481" y="36" width="9" height="16" fill="rgb(167,96,252)"/>
  <rect x="490" y="36" width="9" height="16" fill="rgb(171,95,251)"/>
  <rect x="499" y="36" width="3" height="16" fill="rgb(174,93,250)"/>
  <rect x="505" y="36" width="3" height="16" fill="rgb(174,93,250)"/>
  <rect x="553" y="36" width="9" height="16" fill="rgb(193,84,243)"/>
  <rect x="562" y="36" width="9" height="16" fill="rgb(196,82,242)"/>
  <rect x="571" y="36" width="3" height="16" fill="rgb(199,81,240)"/>
  <rect x="577" y="36" width="3" height="16" fill="rgb(199,81,240)"/>
  <rect x="625" y="36" width="9" height="16" fill="rgb(218,76,222)"/>
  <rect x="634" y="36" width="9" height="16" fill="rgb(221,75,219)"/>
  <rect x="643" y="36" width="9" height="16" fill="rgb(224,74,216)"/>
  <rect x="652" y="36" width="9" height="16" fill="rgb(227,73,213)"/>
  <rect x="661" y="36" width="9" height="16" fill="rgb(231,72,209)"/>
  <rect x="670" y="36" width="9" height="16" fill="rgb(234,72,206)"/>
  <rect x="679" y="36" width="9" height="16" fill="rgb(237,71,203)"/>
  <rect x="688" y="38" width="9" height="3" fill="rgb(240,70,200)"/>
  <rect x="688" y="47" width="6" height="3" fill="rgb(240,70,200)"/>
  <rect x="688" y="36" width="3" height="16" fill="rgb(240,70,200)"/>
  <rect x="694" y="38" width="3" height="14" fill="rgb(240,70,200)"/>
  <rect x="4" y="52" width="9" height="16" fill="rgb(0,200,255)"/>
  <rect x="13" y="52" width="9" height="16" fill="rgb(3,198,255)"/>
  <rect x="22" y="52" width="3" height="16" fill="rgb(6,195,255)"/>
  <rect x="28" y="52" width="3" height="16" fill="rgb(6,195,255)"/>
  <rect x="76" y="52" width="9" height="16" fill="rgb(25,181,255)"/>
  <rect x="85" y="52" width="9" height="16" fill="rgb(28,179,255)"/>
  <rect x="94" y="54" width="9" height="3" fill="rgb(32,176,255)"/>
  <rect x="97" y="63" width="6" height="3" fill="rgb(32,176,255)"/>
  <rect x="94" y="54" width="3" height="14" fill="rgb(32,176,255)"/>
  <rect x="100" y="52" width="3" height="16" fill="rgb(32,176,255)"/>
  <rect x="103" y="54" width="9" height="3" fill="rgb(35,174,255)"/>
  <rect x="103" y="63" width="9" height="3" fill="rgb(35,174,255)"/>
  <rect x="112" y="54" width="9" height="3" fill="rgb(38,172,255)"/>
  <rect x="112" y="63" width="9" height="3" fill="rgb(38,172,255)"/>
  <rect x="121" y="52" width="9" height="16" fill="rgb(41,169,255)"/>
  <rect x="130" y="52" width="9" height="16" fill="rgb(44,167,255)"/>
  <rect x="139" y="54" width="9" height="3" fill="rgb(47,164,255)"/>
  <rect x="139" y="63" width="6" height="3" fill="rgb(47,164,255)"/>
  <rect x="139" y="52" width="3" height="16" fill="rgb(47,164,255)"/>
  <rect x="145" y="54" width="3" height="14" fill="rgb(47,164,255)"/>
  <rect x="157" y="52" width="9" height="16" fill="rgb(54,160,255)"/>
  <rect x="166" y="52" width="9" height="16" fill="rgb(57,157,255)"/>
  <rect x="175" y="52" width="3" height="16" fill="rgb(60,155,255)"/>
  <rect x="181" y="52" width="3" height="16" fill="rgb(60,155,255)"/>
  <rect x="184" y="52" width="9" height="16" fill="rgb(63,153,255)"/>
  <rect x="193" y="52" width="9" height="16" fill="rgb(66,150,255)"/>
  <rect x="202" y="52" width="3" height="16" fill="rgb(69,148,255)"/>
  <rect x="208" y="52" width="3" height="16" fill="rgb(69,148,255)"/>
  <rect x="259" y="54" width="6" height="3" fill="rgb(88,136,255)"/>
  <rect x="256" y="63" width="9" height="3" fill="rgb(88,136,255)"/>
  <rect x="256" y="52" width="3" height="14" fill="rgb(88,136,255)"/>
  <rect x="262" y="54" width="3" height="14" fill="rgb(88,136,255)"/>
  <rect x="265" y="54" width="9" height="3" fill="rgb(92,134,255)"/>
  <rect x="265" y="63" width="9" height="3" fill="rgb(92,134,255)"/>
  <rect x="274" y="54" width="9" height="3" fill="rgb(95,133,255)"/>
  <rect x="274" y="63" width="9" height="3" fill="rgb(95,133,255)"/>
  <rect x="283" y="54" width="9" height="3" fill="rgb(98,131,255)"/>
  <rect x="283" y="63" width="9" height="3" fill="rgb(98,131,255)"/>
  <rect x="292" y="54" width="9" height="3" fill="rgb(101,129,255)"/>
  <rect x="292" y="63" width="9" height="3" fill="rgb(101,129,255)"/>
  <rect x="301" y="54" width="6" height="3" fill="rgb(104,128,255)"/>
  <rect x="301" y="63" width="9" height="3" fill="rgb(104,128,255)"/>
  <rect x="301" y="52" width="3" height="14" fill="rgb(104,128,255)"/>
  <rect x="307" y="52" width="3" height="14" fill="rgb(104,128,255)"/>
  <rect x="313" y="54" width="6" height="3" fill="rgb(107,126,255)"/>
  <rect x="310" y="63" width="9" height="3" fill="rgb(107,126,255)"/>
  <rect x="310" y="52" width="3" height="14" fill="rgb(107,126,255)"/>
  <rect x="316" y="54" width="3" height="14" fill="rgb(107,126,255)"/>
  <rect x="319" y="54" width="9" height="3" fill="rgb(111,125,255)"/>
  <rect x="319" y="63" width="9" height="3" fill="rgb(111,125,255)"/>
  <rect x="328" y="54" width="9" height="3" fill="rgb(114,123,255)"/>
  <rect x="328" y="63" width="9" height="3" fill="rgb(114,123,255)"/>
  <rect x="337" y="54" width="9" height="3" fill="rgb(117,122,255)"/>
  <rect x="337" y="63" width="9" height="3" fill="rgb(117,122,255)"/>
  <rect x="346" y="54" width="9" height="3" fill="rgb(120,120,255)"/>
  <rect x="346" y="63" width="9" height="3" fill="rgb(120,120,255)"/>
  <rect x="355" y="52" width="9" height="16" fill="rgb(123,118,255)"/>
  <rect x="364" y="52" width="9" height="16" fill="rgb(126,117,255)"/>
  <rect x="373" y="52" width="3" height="16" fill="rgb(129,115,255)"/>
  <rect x="379" y="52" width="3" height="16" fill="rgb(129,115,255)"/>
  <rect x="382" y="52" width="9" height="16" fill="rgb(133,114,255)"/>
  <rect x="391" y="52" width="9" height="16" fill="rgb(136,112,255)"/>
  <rect x="400" y="54" width="9" height="3" fill="rgb(139,111,255)"/>
  <rect x="403" y="63" width="6" height="3" fill="rgb(139,111,255)"/>
  <rect x="400" y="54" width="3" height="14" fill="rgb(139,111,255)"/>
  <rect x="406" y="52" width="3" height="16" fill="rgb(139,111,255)"/>
  <rect x="409" y="54" width="9" height="3" fill="rgb(142,109,255)"/>
  <rect x="409" y="63" width="9" height="3" fill="rgb(142,109,255)"/>
  <rect x="418" y="52" width="9" height="16" fill="rgb(145,107,255)"/>
  <rect x="427" y="52" width="9" height="16" fill="rgb(148,106,255)"/>
  <rect x="436" y="54" width="9" height="3" fill="rgb(152,104,255)"/>
  <rect x="436" y="63" width="6" height="3" fill="rgb(152,104,255)"/>
  <rect x="436" y="52" width="3" height="16" fill="rgb(152,104,255)"/>
  <rect x="442" y="54" width="3" height="14" fill="rgb(152,104,255)"/>
  <rect x="454" y="52" width="9" height="16" fill="rgb(158,101,255)"/>
  <rect x="463" y="52" width="9" height="16" fill="rgb(161,99,255)"/>
  <rect x="472" y="52" width="3" height="16" fill="rgb(164,98,253)"/>
  <rect x="478" y="52" width="3" height="16" fill="rgb(164,98,253)"/>
  <rect x="481" y="52" width="9" height="16" fill="rgb(167,96,252)"/>
  <rect x="490" y="52" width="9" height="16" fill="rgb(171,95,251)"/>
  <rect x="499" y="52" width="3" height="16" fill="rgb(174,93,250)"/>
  <rect x="505" y="52" width="3" height="16" fill="rgb(174,93,250)"/>
  <rect x="553" y="52" width="9" height="16" fill="rgb(193,84,243)"/>
  <rect x="562" y="52" width="9" height="16" fill="rgb(196,82,242)"/>
  <rect x="571" y="52" width="3" height="16" fill="rgb(199,81,240)"/>
  <rect x="577" y="52" width="3" height="16" fill="rgb(199,81,240)"/>
  <rect x="628" y="54" width="6" height="3" fill="rgb(218,76,222)"/>
  <rect x="625" y="63" width="9" height="3" fill="rgb(218,76,222)"/>
  <rect x="625" y="52" width="3" height="14" fill="rgb(218,76,222)"/>
  <rect x="631" y="54" width="3" height="14" fill="rgb(218,76,222)"/>
  <rect x="634" y="54" width="9" height="3" fill="rgb(221,75,219)"/>
  <rect x="634" y="63" width="9" height="3" fill="rgb(221,75,219)"/>
  <rect x="643" y="54" width="9" height="3" fill="rgb(224,74,216)"/>
  <rect x="643" y="63" width="9" height="3" fill="rgb(224,74,216)"/>
  <rect x="652" y="54" width="9" height="3" fill="rgb(227,73,213)"/>
  <rect x="652" y="63" width="9" height="3" fill="rgb(227,73,213)"/>
  <rect x="661" y="54" width="9" height="3" fill="rgb(231,72,209)"/>
  <rect x="661" y="63" width="9" height="3" fill="rgb(231,72,209)"/>
  <rect x="670" y="52" width="9" height="16" fill="rgb(234,72,206)"/>
  <rect x="679" y="52" width="9" height="16" fill="rgb(237,71,203)"/>
  <rect x="688" y="52" width="3" height="16" fill="rgb(240,70,200)"/>
  <rect x="694" y="52" width="3" height="16" fill="rgb(240,70,200)"/>
  <rect x="4" y="68" width="9" height="16" fill="rgb(0,200,255)"/>
  <rect x="13" y="68" width="9" height="16" fill="rgb(3,198,255)"/>
  <rect x="22" y="68" width="9" height="16" fill="rgb(6,195,255)"/>
  <rect x="31" y="68" width="9" height="16" fill="rgb(9,193,255)"/>
  <rect x="40" y="68" width="9" height="16" fill="rgb(13,191,255)"/>
  <rect x="49" y="68" width="9" height="16" fill="rgb(16,188,255)"/>
  <rect x="58" y="68" width="9" height="16" fill="rgb(19,186,255)"/>
  <rect x="67" y="70" width="9" height="3" fill="rgb(22,183,255)"/>
  <rect x="67" y="79" width="6" height="3" fill="rgb(22,183,255)"/>
  <rect x="67" y="68" width="3" height="16" fill="rgb(22,183,255)"/>
  <rect x="73" y="70" width="3" height="14" fill="rgb(22,183,255)"/>
  <rect x="76" y="68" width="9" height="16" fill="rgb(25,181,255)"/>
  <rect x="85" y="68" width="9" height="16" fill="rgb(28,179,255)"/>
  <rect x="94" y="68" width="3" height="16" fill="rgb(32,176,255)"/>
  <rect x="100" y="68" width="3" height="16" fill="rgb(32,176,255)"/>
  <rect x="121" y="68" width="9" height="16" fill="rgb(41,169,255)"/>
  <rect x="130" y="68" width="9" height="16" fill="rgb(44,167,255)"/>
  <rect x="139" y="68" width="3" height="16" fill="rgb(47,164,255)"/>
  <rect x="145" y="68" width="3" height="16" fill="rgb(47,164,255)"/>
  <rect x="157" y="68" width="9" height="16" fill="rgb(54,160,255)"/>
  <rect x="166" y="68" width="9" height="16" fill="rgb(57,157,255)"/>
  <rect x="175" y="68" width="3" height="16" fill="rgb(60,155,255)"/>
  <rect x="181" y="68" width="3" height="16" fill="rgb(60,155,255)"/>
  <rect x="184" y="68" width="9" height="16" fill="rgb(63,153,255)"/>
  <rect x="193" y="68" width="9" height="16" fill="rgb(66,150,255)"/>
  <rect x="202" y="68" width="9" height="16" fill="rgb(69,148,255)"/>
  <rect x="211" y="68" width="9" height="16" fill="rgb(73,146,255)"/>
  <rect x="220" y="68" width="9" height="16" fill="rgb(76,143,255)"/>
  <rect x="229" y="68" width="9" height="16" fill="rgb(79,141,255)"/>
  <rect x="238" y="68" width="9" height="16" fill="rgb(82,139,255)"/>
  <rect x="247" y="70" width="9" height="3" fill="rgb(85,137,255)"/>
  <rect x="247" y="79" width="6" height="3" fill="rgb(85,137,255)"/>
  <rect x="247" y="68" width="3" height="16" fill="rgb(85,137,255)"/>
  <rect x="253" y="70" width="3" height="14" fill="rgb(85,137,255)"/>
  <rect x="310" y="68" width="9" height="16" fill="rgb(107,126,255)"/>
  <rect x="319" y="68" width="9" height="16" fill="rgb(111,125,255)"/>
  <rect x="328" y="68" width="9" height="16" fill="rgb(114,123,255)"/>
  <rect x="337" y="68" width="9" height="16" fill="rgb(117,122,255)"/>
  <rect x="346" y="68" width="9" height="16" fill="rgb(120,120,255)"/>
  <rect x="355" y="68" width="9" height="16" fill="rgb(123,118,255)"/>
  <rect x="364" y="68" width="9" height="16" fill="rgb(126,117,255)"/>
  <rect x="373" y="68" width="3" height="16" fill="rgb(129,115,255)"/>
  <rect x="379" y="68" width="3" height="16" fill="rgb(129,115,255)"/>
  <rect x="382" y="68" width="9" height="16" fill="rgb(133,114,255)"/>
  <rect x="391" y="68" width="9" height="16" fill="rgb(136,112,255)"/>
  <rect x="400" y="68" width="3" height="16" fill="rgb(139,111,255)"/>
  <rect x="406" y="68" width="3" height="16" fill="rgb(139,111,255)"/>
  <rect x="427" y="68" width="9" height="16" fill="rgb(148,106,255)"/>
  <rect x="436" y="68" width="9" height="16" fill="rgb(152,104,255)"/>
  <rect x="445" y="70" width="9" height="3" fill="rgb(155,103,255)"/>
  <rect x="445" y="79" width="6" height="3" fill="rgb(155,103,255)"/>
  <rect x="445" y="68" width="3" height="16" fill="rgb(155,103,255)"/>
  <rect x="451" y="70" width="3" height="14" fill="rgb(155,103,255)"/>
  <rect x="454" y="68" width="9" height="16" fill="rgb(158,101,255)"/>
  <rect x="463" y="68" width="9" height="16" fill="rgb(161,99,255)"/>
  <rect x="472" y="68" width="3" height="16" fill="rgb(164,98,253)"/>
  <rect x="478" y="68" width="3" height="16" fill="rgb(164,98,253)"/>
  <rect x="481" y="68" width="9" height="16" fill="rgb(167,96,252)"/>
  <rect x="490" y="68" width="9" height="16" fill="rgb(171,95,251)"/>
  <rect x="499" y="68" width="9" height="16" fill="rgb(174,93,250)"/>
  <rect x="508" y="68" width="9" height="16" fill="rgb(177,92,249)"/>
  <rect x="517" y="68" width="9" height="16" fill="rgb(180,90,248)"/>
  <rect x="526" y="68" width="9" height="16" fill="rgb(183,88,246)"/>
  <rect x="535" y="68" width="9" height="16" fill="rgb(186,87,245)"/>
  <rect x="544" y="70" width="9" height="3" fill="rgb(189,85,244)"/>
  <rect x="544" y="79" width="6" height="3" fill="rgb(189,85,244)"/>
  <rect x="544" y="68" width="3" height="16" fill="rgb(189,85,244)"/>
  <rect x="550" y="70" width="3" height="14" fill="rgb(189,85,244)"/>
  <rect x="553" y="68" width="9" height="16" fill="rgb(193,84,243)"/>
  <rect x="562" y="68" width="9" height="16" fill="rgb(196,82,242)"/>
  <rect x="571" y="68" width="9" height="16" fill="rgb(199,81,240)"/>
  <rect x="580" y="68" width="9" height="16" fill="rgb(202,79,238)"/>
  <rect x="589" y="68" width="9" height="16" fill="rgb(205,79,235)"/>
  <rect x="598" y="68" width="9" height="16" fill="rgb(208,78,232)"/>
  <rect x="607" y="68" width="9" height="16" fill="rgb(212,77,228)"/>
  <rect x="616" y="70" width="9" height="3" fill="rgb(215,76,225)"/>
  <rect x="616" y="79" width="6" height="3" fill="rgb(215,76,225)"/>
  <rect x="616" y="68" width="3" height="16" fill="rgb(215,76,225)"/>
  <rect x="622" y="70" width="3" height="14" fill="rgb(215,76,225)"/>
  <rect x="625" y="68" width="9" height="16" fill="rgb(218,76,222)"/>
  <rect x="634" y="68" width="9" height="16" fill="rgb(221,75,219)"/>
  <rect x="643" y="68" width="9" height="16" fill="rgb(224,74,216)"/>
  <rect x="652" y="68" width="9" height="16" fill="rgb(227,73,213)"/>
  <rect x="661" y="68" width="9" height="16" fill="rgb(231,72,209)"/>
  <rect x="670" y="68" width="9" height="16" fill="rgb(234,72,206)"/>
  <rect x="679" y="68" width="9" height="16" fill="rgb(237,71,203)"/>
  <rect x="688" y="68" width="3" height="16" fill="rgb(240,70,200)"/>
  <rect x="694" y="68" width="3" height="16" fill="rgb(240,70,200)"/>
  <rect x="7" y="86" width="6" height="3" fill="rgb(0,200,255)"/>
  <rect x="4" y="95" width="9" height="3" fill="rgb(0,200,255)"/>
  <rect x="4" y="84" width="3" height="14" fill="rgb(0,200,255)"/>
  <rect x="10" y="86" width="3" height="14" fill="rgb(0,200,255)"/>
  <rect x="13" y="86" width="9" height="3" fill="rgb(3,198,255)"/>
  <rect x="13" y="95" width="9" height="3" fill="rgb(3,198,255)"/>
  <rect x="22" y="86" width="9" height="3" fill="rgb(6,195,255)"/>
  <rect x="22" y="95" width="9" height="3" fill="rgb(6,195,255)"/>
  <rect x="31" y="86" width="9" height="3" fill="rgb(9,193,255)"/>
  <rect x="31" y="95" width="9" height="3" fill="rgb(9,193,255)"/>
  <rect x="40" y="86" width="9" height="3" fill="rgb(13,191,255)"/>
  <rect x="40" y="95" width="9" height="3" fill="rgb(13,191,255)"/>
  <rect x="49" y="86" width="9" height="3" fill="rgb(16,188,255)"/>
  <rect x="49" y="95" width="9" height="3" fill="rgb(16,188,255)"/>
  <rect x="58" y="86" width="9" height="3" fill="rgb(19,186,255)"/>
  <rect x="58" y="95" width="9" height="3" fill="rgb(19,186,255)"/>
  <rect x="67" y="86" width="6" height="3" fill="rgb(22,183,255)"/>
  <rect x="67" y="95" width="9" height="3" fill="rgb(22,183,255)"/>
  <rect x="67" y="84" width="3" height="14" fill="rgb(22,183,255)"/>
  <rect x="73" y="84" width="3" height="14" fill="rgb(22,183,255)"/>
  <rect x="79" y="86" width="6" height="3" fill="rgb(25,181,255)"/>
  <rect x="76" y="95" width="9" height="3" fill="rgb(25,181,255)"/>
  <rect x="76" y="84" width="3" height="14" fill="rgb(25,181,255)"/>
  <rect x="82" y="86" width="3" height="14" fill="rgb(25,181,255)"/>
  <rect x="85" y="86" width="9" height="3" fill="rgb(28,179,255)"/>
  <rect x="85" y="95" width="9" height="3" fill="rgb(28,179,255)"/>
  <rect x="94" y="86" width="6" height="3" fill="rgb(32,176,255)"/>
  <rect x="94" y="95" width="9" height="3" fill="rgb(32,176,255)"/>
  <rect x="94" y="84" width="3" height="14" fill="rgb(32,176,255)"/>
  <rect x="100" y="84" width="3" height="14" fill="rgb(32,176,255)"/>
  <rect x="124" y="86" width="6" height="3" fill="rgb(41,169,255)"/>
  <rect x="121" y="95" width="9" height="3" fill="rgb(41,169,255)"/>
  <rect x="121" y="84" width="3" height="14" fill="rgb(41,169,255)"/>
  <rect x="127" y="86" width="3" height="14" fill="rgb(41,169,255)"/>
  <rect x="130" y="86" width="9" height="3" fill="rgb(44,167,255)"/>
  <rect x="130" y="95" width="9" height="3" fill="rgb(44,167,255)"/>
  <rect x="139" y="86" width="6" height="3" fill="rgb(47,164,255)"/>
  <rect x="139" y="95" width="9" height="3" fill="rgb(47,164,255)"/>
  <rect x="139" y="84" width="3" height="14" fill="rgb(47,164,255)"/>
  <rect x="145" y="84" width="3" height="14" fill="rgb(47,164,255)"/>
  <rect x="160" y="86" width="6" height="3" fill="rgb(54,160,255)"/>
  <rect x="157" y="95" width="9" height="3" fill="rgb(54,160,255)"/>
  <rect x="157" y="84" width="3" height="14" fill="rgb(54,160,255)"/>
  <rect x="163" y="86" width="3" height="14" fill="rgb(54,160,255)"/>
  <rect x="166" y="86" width="9" height="3" fill="rgb(57,157,255)"/>
  <rect x="166" y="95" width="9" height="3" fill="rgb(57,157,255)"/>
  <rect x="175" y="86" width="6" height="3" fill="rgb(60,155,255)"/>
  <rect x="175" y="95" width="9" height="3" fill="rgb(60,155,255)"/>
  <rect x="175" y="84" width="3" height="14" fill="rgb(60,155,255)"/>
  <rect x="181" y="84" width="3" height="14" fill="rgb(60,155,255)"/>
  <rect x="187" y="86" width="6" height="3" fill="rgb(63,153,255)"/>
  <rect x="184" y="95" width="9" height="3" fill="rgb(63,153,255)"/>
  <rect x="184" y="84" width="3" height="14" fill="rgb(63,153,255)"/>
  <rect x="190" y="86" width="3" height="14" fill="rgb(63,153,255)"/>
  <rect x="193" y="86" width="9" height="3" fill="rgb(66,150,255)"/>
  <rect x="193" y="95" width="9" height="3" fill="rgb(66,150,255)"/>
  <rect x="202" y="86" width="9" height="3" fill="rgb(69,148,255)"/>
  <rect x="202" y="95" width="9" height="3" fill="rgb(69,148,255)"/>
  <rect x="211" y="86" width="9" height="3" fill="rgb(73,146,255)"/>
  <rect x="211" y="95" width="9" height="3" fill="rgb(73,146,255)"/>
  <rect x="220" y="86" width="9" height="3" fill="rgb(76,143,255)"/>
  <rect x="220" y="95" width="9" height="3" fill="rgb(76,143,255)"/>
  <rect x="229" y="86" width="9" height="3" fill="rgb(79,141,255)"/>
  <rect x="229" y="95" width="9" height="3" fill="rgb(79,141,255)"/>
  <rect x="238" y="86" width="9" height="3" fill="rgb(82,139,255)"/>
  <rect x="238" y="95" width="9" height="3" fill="rgb(82,139,255)"/>
  <rect x="247" y="86" width="6" height="3" fill="rgb(85,137,255)"/>
  <rect x="247" y="95" width="9" height="3" fill="rgb(85,137,255)"/>
  <rect x="247" y="84" width="3" height="14" fill="rgb(85,137,255)"/>
  <rect x="253" y="84" width="3" height="14" fill="rgb(85,137,255)"/>
  <rect x="313" y="86" width="6" height="3" fill="rgb(107,126,255)"/>
  <rect x="310" y="95" width="9" height="3" fill="rgb(107,126,255)"/>
  <rect x="310" y="84" width="3" height="14" fill="rgb(107,126,255)"/>
  <rect x="316" y="86" width="3" height="14" fill="rgb(107,126,255)"/>
  <rect x="319" y="86" width="9" height="3" fill="rgb(111,125,255)"/>
  <rect x="319" y="95" width="9" height="3" fill="rgb(111,125,255)"/>
  <rect x="328" y="86" width="9" height="3" fill="rgb(114,123,255)"/>
  <rect x="328" y="95" width="9" height="3" fill="rgb(114,123,255)"/>
  <rect x="337" y="86" width="9" height="3" fill="rgb(117,122,255)"/>
  <rect x="337" y="95" width="9" height="3" fill="rgb(117,122,255)"/>
  <rect x="346" y="86" width="9" height="3" fill="rgb(120,120,255)"/>
  <rect x="346" y="95" width="9" height="3" fill="rgb(120,120,255)"/>
  <rect x="355" y="86" width="9" height="3" fill="rgb(123,118,255)"/>
  <rect x="355" y="95" width="9" height="3" fill="rgb(123,118,255)"/>
  <rect x="364" y="86" width="9" height="3" fill="rgb(126,117,255)"/>
  <rect x="364" y="95" width="9" height="3" fill="rgb(126,117,255)"/>
  <rect x="373" y="86" width="6" height="3" fill="rgb(129,115,255)"/>
  <rect x="373" y="95" width="9" height="3" fill="rgb(129,115,255)"/>
  <rect x="373" y="84" width="3" height="14" fill="rgb(129,115,255)"/>
  <rect x="379" y="84" width="3" height="14" fill="rgb(129,115,255)"/>
  <rect x="385" y="86" width="6" height="3" fill="rgb(133,114,255)"/>
  <rect x="382" y="95" width="9" height="3" fill="rgb(133,114,255)"/>
  <rect x="382" y="84" width="3" height="14" fill="rgb(133,114,255)"/>
  <rect x="388" y="86" width="3" height="14" fill="rgb(133,114,255)"/>
  <rect x="391" y="86" width="9" height="3" fill="rgb(136,112,255)"/>
  <rect x="391" y="95" width="9" height="3" fill="rgb(136,112,255)"/>
  <rect x="400" y="86" width="6" height="3" fill="rgb(139,111,255)"/>
  <rect x="400" y="95" width="9" height="3" fill="rgb(139,111,255)"/>
  <rect x="400" y="84" width="3" height="14" fill="rgb(139,111,255)"/>
  <rect x="406" y="84" width="3" height="14" fill="rgb(139,111,255)"/>
  <rect x="430" y="86" width="6" height="3" fill="rgb(148,106,255)"/>
  <rect x="427" y="95" width="9" height="3" fill="rgb(148,106,255)"/>
  <rect x="427" y="84" width="3" height="14" fill="rgb(148,106,255)"/>
  <rect x="433" y="86" width="3" height="14" fill="rgb(148,106,255)"/>
  <rect x="436" y="86" width="9" height="3" fill="rgb(152,104,255)"/>
  <rect x="436" y="95" width="9" height="3" fill="rgb(152,104,255)"/>
  <rect x="445" y="86" width="6" height="3" fill="rgb(155,103,255)"/>
  <rect x="445" y="95" width="9" height="3" fill="rgb(155,103,255)"/>
  <rect x="445" y="84" width="3" height="14" fill="rgb(155,103,255)"/>
  <rect x="451" y="84" width="3" height="14" fill="rgb(155,103,255)"/>
  <rect x="457" y="86" width="6" height="3" fill="rgb(158,101,255)"/>
  <rect x="454" y="95" width="9" height="3" fill="rgb(158,101,255)"/>
  <rect x="454" y="84" width="3" height="14" fill="rgb(158,101,255)"/>
  <rect x="460" y="86" width="3" height="14" fill="rgb(158,101,255)"/>
  <rect x="463" y="86" width="9" height="3" fill="rgb(161,99,255)"/>
  <rect x="463" y="95" width="9" height="3" fill="rgb(161,99,255)"/>
  <rect x="472" y="86" width="6" height="3" fill="rgb(164,98,253)"/>
  <rect x="472" y="95" width="9" height="3" fill="rgb(164,98,253)"/>
  <rect x="472" y="84" width="3" height="14" fill="rgb(164,98,253)"/>
  <rect x="478" y="84" width="3" height="14" fill="rgb(164,98,253)"/>
  <rect x="484" y="86" width="6" height="3" fill="rgb(167,96,252)"/>
  <rect x="481" y="95" width="9" height="3" fill="rgb(167,96,252)"/>
  <rect x="481" y="84" width="3" height="14" fill="rgb(167,96,252)"/>
  <rect x="487" y="86" width="3" height="14" fill="rgb(167,96,252)"/>
  <rect x="490" y="86" width="9" height="3" fill="rgb(171,95,251)"/>
  <rect x="490" y="95" width="9" height="3" fill="rgb(171,95,251)"/>
  <rect x="499" y="86" width="9" height="3" fill="rgb(174,93,250)"/>
  <rect x="499" y="95" width="9" height="3" fill="rgb(174,93,250)"/>
  <rect x="508" y="86" width="9" height="3" fill="rgb(177,92,249)"/>
  <rect x="508" y="95" width="9" height="3" fill="rgb(177,92,249)"/>
  <rect x="517" y="86" width="9" height="3" fill="rgb(180,90,248)"/>
  <rect x="517" y="95" width="9" height="3" fill="rgb(180,90,248)"/>
  <rect x="526" y="86" width="9" height="3" fill="rgb(183,88,246)"/>
  <rect x="526" y="95" width="9" height="3" fill="rgb(183,88,246)"/>
  <rect x="535" y="86" width="9" height="3" fill="rgb(186,87,245)"/>
  <rect x="535" y="95" width="9" height="3" fill="rgb(186,87,245)"/>
  <rect x="544" y="86" width="6" height="3" fill="rgb(189,85,244)"/>
  <rect x="544" y="95" width="9" height="3" fill="rgb(189,85,244)"/>
  <rect x="544" y="84" width="3" height="14" fill="rgb(189,85,244)"/>
  <rect x="550" y="84" width="3" height="14" fill="rgb(189,85,244)"/>
  <rect x="556" y="86" width="6" height="3" fill="rgb(193,84,243)"/>
  <rect x="553" y="95" width="9" height="3" fill="rgb(193,84,243)"/>
  <rect x="553" y="84" width="3" height="14" fill="rgb(193,84,243)"/>
  <rect x="559" y="86" width="3" height="14" fill="rgb(193,84,243)"/>
  <rect x="562" y="86" width="9" height="3" fill="rgb(196,82,242)"/>
  <rect x="562" y="95" width="9" height="3" fill="rgb(196,82,242)"/>
  <rect x="571" y="86" width="9" height="3" fill="rgb(199,81,240)"/>
  <rect x="571" y="95" width="9" height="3" fill="rgb(199,81,240)"/>
  <rect x="580" y="86" width="9" height="3" fill="rgb(202,79,238)"/>
  <rect x="580" y="95" width="9" height="3" fill="rgb(202,79,238)"/>
  <rect x="589" y="86" width="9" height="3" fill="rgb(205,79,235)"/>
  <rect x="589" y="95" width="9" height="3" fill="rgb(205,79,235)"/>
  <rect x="598" y="86" width="9" height="3" fill="rgb(208,78,232)"/>
  <rect x="598" y="95" width="9" height="3" fill="rgb(208,78,232)"/>
  <rect x="607" y="86" width="9" height="3" fill="rgb(212,77,228)"/>
  <rect x="607" y="95" width="9" height="3" fill="rgb(212,77,228)"/>
  <rect x="616" y="86" width="6" height="3" fill="rgb(215,76,225)"/>
  <rect x="616" y="95" width="9" height="3" fill="rgb(215,76,225)"/>
  <rect x="616" y="84" width="3" height="14" fill="rgb(215,76,225)"/>
  <rect x="622" y="84" width="3" height="14" fill="rgb(215,76,225)"/>
  <rect x="628" y="86" width="6" height="3" fill="rgb(218,76,222)"/>
  <rect x="625" y="95" width="9" height="3" fill="rgb(218,76,222)"/>
  <rect x="625" y="84" width="3" height="14" fill="rgb(218,76,222)"/>
  <rect x="631" y="86" width="3" height="14" fill="rgb(218,76,222)"/>
  <rect x="634" y="86" width="9" height="3" fill="rgb(221,75,219)"/>
  <rect x="634" y="95" width="9" height="3" fill="rgb(221,75,219)"/>
  <rect x="643" y="86" width="9" height="3" fill="rgb(224,74,216)"/>
  <rect x="643" y="95" width="9" height="3" fill="rgb(224,74,216)"/>
  <rect x="652" y="86" width="9" height="3" fill="rgb(227,73,213)"/>
  <rect x="652" y="95" width="9" height="3" fill="rgb(227,73,213)"/>
  <rect x="661" y="86" width="9" height="3" fill="rgb(231,72,209)"/>
  <rect x="661" y="95" width="9" height="3" fill="rgb(231,72,209)"/>
  <rect x="670" y="86" width="9" height="3" fill="rgb(234,72,206)"/>
  <rect x="670" y="95" width="9" height="3" fill="rgb(234,72,206)"/>
  <rect x="679" y="86" width="9" height="3" fill="rgb(237,71,203)"/>
  <rect x="679" y="95" width="9" height="3" fill="rgb(237,71,203)"/>
  <rect x="688" y="86" width="6" height="3" fill="rgb(240,70,200)"/>
  <rect x="688" y="95" width="9" height="3" fill="rgb(240,70,200)"/>
  <rect x="688" y="84" width="3" height="14" fill="rgb(240,70,200)"/>
  <rect x="694" y="84" width="3" height="14" fill="rgb(240,70,200)"/>
</svg>
